<?xml version="1.0" encoding="utf-8"?>
<!-- Generator: Adobe Illustrator 24.1.0, SVG Export Plug-In . SVG Version: 6.00 Build 0)  -->
<svg version="1.0" id="Calque_1" xmlns="http://www.w3.org/2000/svg" xmlns:xlink="http://www.w3.org/1999/xlink" x="0px" y="0px"
	 viewBox="0 0 40 40" style="enable-background:new 0 0 40 40;" xml:space="preserve">
<style type="text/css">
	.st0{fill:inherit;}
</style>
<path class="st0" d="M37.9,20c0,0.2-0.1,0.4-0.2,0.5l-10.6,9.3c-0.1,0.1-0.3,0.2-0.4,0.2c-0.2,0-0.4-0.1-0.5-0.2
	c-0.2-0.3-0.2-0.7,0.1-0.9l9.3-8.2H2.7c-0.4,0-0.6-0.3-0.6-0.7s0.3-0.6,0.6-0.6h32.8l-9.3-8.2c-0.3-0.2-0.3-0.6-0.1-0.9
	c0.2-0.3,0.6-0.3,0.9-0.1l10.6,9.3C37.8,19.6,37.9,19.8,37.9,20z"/>
</svg>
