<?xml version="1.0" encoding="utf-8"?>
<!-- Generator: Adobe Illustrator 24.1.0, SVG Export Plug-In . SVG Version: 6.00 Build 0)  -->
<svg version="1.0" id="Calque_1" xmlns="http://www.w3.org/2000/svg" xmlns:xlink="http://www.w3.org/1999/xlink" x="0px" y="0px"
	 viewBox="0 0 40 40" style="enable-background:new 0 0 40 40;" xml:space="preserve">
<style type="text/css">
	.st0{fill:#231F20;}
</style>
<path class="st0" d="M37.9,20c0,0.4-0.3,0.7-0.7,0.7H4.5l9.3,8.2c0.3,0.2,0.3,0.6,0.1,0.9c-0.1,0.1-0.3,0.2-0.5,0.2
	c-0.2,0-0.3-0.1-0.4-0.2L2.3,20.5c-0.1-0.1-0.2-0.3-0.2-0.5s0.1-0.4,0.2-0.5l10.6-9.3c0.3-0.2,0.7-0.2,0.9,0.1s0.2,0.7-0.1,0.9
	l-9.3,8.2h32.8C37.6,19.4,37.9,19.6,37.9,20z"/>
</svg>
